<svg xmlns="http://www.w3.org/2000/svg" viewBox="0 0 320 210"><defs>
<linearGradient id="st" x1="0" y1="0" x2="0" y2="1"><stop offset="0" stop-color="#f1f4f8"/><stop offset="1" stop-color="#aeb8c6"/></linearGradient>
<linearGradient id="sd" x1="0" y1="0" x2="0" y2="1"><stop offset="0" stop-color="#8e99aa"/><stop offset="1" stop-color="#5d6879"/></linearGradient>
<linearGradient id="bd" x1="0" y1="0" x2="0" y2="1"><stop offset="0" stop-color="#3f74b3"/><stop offset="1" stop-color="#244a78"/></linearGradient>
<linearGradient id="ch" x1="0" y1="0" x2="0" y2="1"><stop offset="0" stop-color="#58637a"/><stop offset="1" stop-color="#363f4f"/></linearGradient>
<linearGradient id="or" x1="0" y1="0" x2="0" y2="1"><stop offset="0" stop-color="#ff9a3d"/><stop offset="1" stop-color="#d9600b"/></linearGradient>
<linearGradient id="gl" x1="0" y1="0" x2="1" y2="1"><stop offset="0" stop-color="#d6efff"/><stop offset="1" stop-color="#7fb3de"/></linearGradient>
<radialGradient id="sh"><stop offset="0" stop-color="#000" stop-opacity=".32"/><stop offset="1" stop-color="#000" stop-opacity="0"/></radialGradient>
</defs><ellipse cx="160" cy="200" rx="128" ry="10" fill="url(#sh)"/>
<path d="M98 138l-14 58M112 138l14 58M226 138l-14 58M240 138l14 58" stroke="url(#ch)" stroke-width="6" stroke-linecap="round"/>
<rect x="90" y="134" width="30" height="7" rx="2" fill="url(#ch)"/><rect x="218" y="134" width="30" height="7" rx="2" fill="url(#ch)"/>
<path d="M64 110h180l24 22H88z" fill="url(#st)"/><path d="M88 132h180v7H88z" fill="url(#sd)"/>
<path d="M126 110h18l24 22h-18z" fill="#4aa3df" opacity=".9"/>
<ellipse cx="206" cy="116" rx="30" ry="8" fill="#2b3440"/>
<path d="M180 114c0-26 52-26 52 0z" fill="url(#or)"/><ellipse cx="206" cy="92" rx="13" ry="6" fill="url(#ch)"/>
<path d="M190 104c6-5 26-5 32 0" stroke="#fff" stroke-opacity=".35" stroke-width="2" fill="none"/>
<path d="M232 106c24-6 34-26 56-22" stroke="url(#ch)" stroke-width="4" fill="none" stroke-linecap="round"/>
<g fill="#cfd6df" opacity=".75"><circle cx="242" cy="122" r="2.5"/><circle cx="250" cy="116" r="1.8"/><circle cx="170" cy="124" r="2"/><circle cx="163" cy="118" r="1.5"/><circle cx="256" cy="126" r="1.5"/></g></svg>
